# xmcd CD database file
#
# Track frame offsets:
#	150
#	15331
#	29681
#	45455
#	61359
#	73500
#	93461
#	110984
#	125748
#	147281
#	162004
#	179493
#
# Disc length: 2557 seconds
#
# Revision: 0
# Processed by: cddbd v1.5.1PL2 Copyright (c) Steve Scherf et al.
# Submitted via: CDex 1.51
#
DISCID=aa09fb0c
DTITLE=Dean Perrett - New Traditions
DYEAR=2006
DGENRE=Country
TTITLE0=Channel Country Ringer
TTITLE1=He'll Never Win The Open
TTITLE2=Jewel Of The Newell
TTITLE3=Packhorse and Waterhole
TTITLE4=Over The Hill (With Tracy Coster)
TTITLE5=Would Clancy Be Welcome
TTITLE6=Between Two Worlds
TTITLE7=The Man From Never Never
TTITLE8=Minstrel's Daughters
TTITLE9=Two old Mates (With Jeff Brown)
TTITLE10=The Peel Street Blues
TTITLE11=The Bright Tomorrow
EXTD=YEAR: 2006
EXTT0=
EXTT1=
EXTT2=
EXTT3=
EXTT4=
EXTT5=
EXTT6=
EXTT7=
EXTT8=
EXTT9=
EXTT10=
EXTT11=
PLAYORDER=
